<svg width="893" height="1072" viewBox="0 0 893 1072" fill="none" xmlns="http://www.w3.org/2000/svg">
<g clip-path="url(#clip0_240_2500)">
<path d="M446.667 0C200.017 0 0 196.31 0 438.403C0 684.293 195.417 852.374 446.667 1072C697.917 852.374 893.333 684.293 893.333 438.403C893.333 196.31 693.316 0 446.667 0ZM446.667 804C249.285 804 89.3333 644.004 89.3333 446.667C89.3333 249.329 249.285 89.3333 446.667 89.3333C644.049 89.3333 804 249.329 804 446.667C804 644.004 644.049 804 446.667 804Z" fill="black"/>
<circle cx="447.5" cy="447.5" r="367.5" fill="#F7CFB9"/>
<path d="M439.766 535.318H455.686C477.856 535.318 497.993 531.751 516.094 524.617C534.195 517.482 549.791 507.252 562.881 493.925C575.971 480.6 586.054 464.592 593.129 445.901C600.205 427.209 603.743 406.307 603.743 383.194V347.285C603.743 333.252 597.198 320.929 584.108 310.315C571.018 299.702 552.769 291.417 529.36 285.462C505.952 279.507 478.74 276.529 447.727 276.529C416.711 276.529 389.5 279.507 366.092 285.462C342.683 291.417 324.434 299.702 311.345 310.315C298.255 320.929 291.71 333.252 291.71 347.285V383.194C291.71 405.6 295.247 426.06 302.323 444.574C309.399 463.088 319.481 479.126 332.571 492.688C345.661 506.249 361.286 516.745 379.447 524.175C397.608 531.604 417.714 535.318 439.766 535.318ZM447.727 390.446C423.08 390.446 401.087 388.53 381.746 384.697C362.406 380.864 347.164 375.705 336.02 369.219C324.876 362.733 319.304 355.422 319.304 347.285C319.304 339.148 324.876 331.837 336.02 325.351C347.164 318.865 362.406 313.706 381.746 309.873C401.087 306.04 423.08 304.124 447.727 304.124C472.491 304.124 494.543 306.04 513.882 309.873C533.223 313.706 548.465 318.865 559.608 325.351C570.753 331.837 576.325 339.148 576.325 347.285C576.325 355.422 570.753 362.733 559.608 369.219C548.465 375.705 533.223 380.864 513.882 384.697C494.543 388.53 472.491 390.446 447.727 390.446ZM584.639 457.133H598.613C618.306 457.133 633.754 452.239 644.957 442.451C656.16 432.664 661.762 419.22 661.762 402.121C661.762 385.021 656.132 371.578 644.87 361.79C633.607 352.002 618.188 347.108 598.613 347.108H587.293V374.526H598.613C609.816 374.526 618.542 376.973 624.793 381.867C631.042 386.761 634.167 393.512 634.167 402.121C634.167 410.729 631.042 417.481 624.793 422.374C618.542 427.268 609.816 429.715 598.613 429.715H584.639V457.133ZM446.841 620.048C480.451 620.048 511.289 617.807 539.355 613.326C567.421 608.846 591.714 602.419 612.233 594.046C632.752 585.672 648.613 575.767 659.817 564.329C671.02 552.889 676.621 540.212 676.621 526.298C676.621 515.566 673.083 505.483 666.008 496.048C658.932 486.615 648.967 478.124 636.114 470.577C630.806 472.817 625.234 474.527 619.397 475.707C613.559 476.885 607.28 477.593 600.559 477.83C586.526 502.358 567.038 521.521 542.096 535.318C517.155 549.116 488.351 556.015 455.686 556.015H439.766C415.591 556.015 393.362 551.946 373.079 543.81C352.795 535.672 335.166 524.233 320.189 509.492C305.212 494.751 293.479 477.298 284.988 457.133C263.525 465.506 246.839 475.559 234.928 487.292C223.018 499.026 217.062 512.028 217.062 526.298C217.062 540.212 222.693 552.889 233.955 564.329C245.217 575.767 261.108 585.672 281.627 594.046C302.146 602.419 326.41 608.846 354.417 613.326C382.424 617.807 413.232 620.048 446.841 620.048Z" fill="black" fill-opacity="0.85"/>
</g>
<defs>
<clipPath id="clip0_240_2500">
<rect width="893" height="1072" fill="white"/>
</clipPath>
</defs>
</svg>
